<?xml version="1.0" encoding="utf-8"?>
<!-- Generator: Adobe Illustrator 18.0.0, SVG Export Plug-In . SVG Version: 6.00 Build 0)  -->
<!DOCTYPE svg PUBLIC "-//W3C//DTD SVG 1.1//EN" "http://www.w3.org/Graphics/SVG/1.1/DTD/svg11.dtd">
<svg version="1.1" id="Layer_1" xmlns="http://www.w3.org/2000/svg" xmlns:xlink="http://www.w3.org/1999/xlink" x="0px" y="0px"
	 width="65px" height="68px" viewBox="0 0 65 68" enable-background="new 0 0 65 68" xml:space="preserve">
<g>
	<defs>
		<rect id="SVGID_1_" x="0.1" y="-0.1" width="64.9" height="67.7"/>
	</defs>
	<clipPath id="SVGID_2_">
		<use xlink:href="#SVGID_1_"  overflow="visible"/>
	</clipPath>
	<rect x="0.8" y="0.9" clip-path="url(#SVGID_2_)" fill="#FFFFFF" width="63.6" height="65.9"/>
	<rect x="1.4" y="1.5" clip-path="url(#SVGID_2_)" fill="#DFC42B" width="62.3" height="64.7"/>
	<g clip-path="url(#SVGID_2_)">
		<defs>
			<rect id="SVGID_3_" x="-8.1" y="-8" width="81.3" height="83.7"/>
		</defs>
		<clipPath id="SVGID_4_">
			<use xlink:href="#SVGID_3_"  overflow="visible"/>
		</clipPath>
		<path clip-path="url(#SVGID_4_)" fill="#005A50" d="M1.4,66.2V41.3c6.8-1.4,28.6-7.2,62.3,2v22.9H1.4z"/>
		<path clip-path="url(#SVGID_4_)" fill="#001E20" d="M1.4,41.6L1.4,41.6c3.1-0.8,22.8-5.3,55.6,10.6C26.1,33.9,4.6,40.5,1.4,41.6"
			/>
		<path clip-path="url(#SVGID_4_)" fill="#005A50" d="M26.1,25.7c0.3-0.6,0.9-0.4,1.1-0.8c0.3-0.8,0.3-2,0.7-2.8
			c-0.6,0.4-1.5,0.8-1.9,1.4c-0.6,0.8-0.1,2-0.2,2.9L26.1,25.7z M39.7,27.1c6.6,1.3,14.5,8.2,24,11.4v-0.8
			c-3.7-1.7-8.5-4.4-14.6-8.7c0,0-14.5-11-22.6,2.3l-0.8,1.5c-0.1,0-0.3-0.1-0.4-0.1C18.9,18.1,37.8,9.9,37.8,9.9
			C45.4,6.8,50.3,4,53.5,1.5h-3.1c-3.2,1.9-7.6,4-13.4,6.3c0,0-19.1,6.9-13.5,24.2C11.8,28.7,4,30,4,30s7.7-0.7,20,3.5
			c0.3,0.7,0.6,1.5,1,2.2c0,0,0.3-0.6,1-1.5c8.7,3.2,19.5,8.7,31.4,18.3c-11-10.6-21.7-16.3-30.6-19.4
			C29.1,30.1,33.6,25.8,39.7,27.1"/>
		<path clip-path="url(#SVGID_4_)" fill="#FFFFFF" d="M25.7,26.4l0.1-0.8c0.2-0.7,0.8-0.6,1-0.9c0.3-0.8,0.3-2,0.7-2.7
			c-0.6,0.4-1.5,0.8-1.9,1.4C25,24.1,25.8,25.5,25.7,26.4 M39.2,26.4c6.7,1.3,14.8,8.3,24.6,11.4v-0.7c-3.8-1.6-8.8-4.4-15.2-8.8
			c0,0-14.5-10.8-22.6,2.2L25.1,32c-0.1,0-0.3-0.1-0.4-0.1C18.4,17.6,37.3,9.6,37.3,9.6c7.4-3,12.4-5.8,15.6-8.1h-3.2
			c-3.2,1.8-7.5,3.9-13.3,6.1c0,0-19.1,6.7-13.5,23.8c-11.6-3.2-19.5-2-19.5-2s7.7-0.7,20,3.4c0.3,0.7,0.6,1.4,1,2.2
			c0,0,0.3-0.6,1-1.5c8.7,3.1,19.5,8.5,31.4,18c-11-10.4-21.7-16-30.6-19C28.5,29.4,33,25.2,39.2,26.4"/>
		<path clip-path="url(#SVGID_4_)" fill="#FFFFFF" d="M8.4,54.1l-3.2,9.7h2.2l0.6-2h3.2l0.6,2h2.3L11,54.1H8.4z M8.6,60l1.1-3.4
			l1,3.4H8.6z M22.1,59l-1.9-4.9h-2.6v9.7h2.1v-6.5l1.6,4.2h1.5l1.6-4.2v6.5h2.2v-9.7H24L22.1,59z M33.2,54.1h-2.2v9.7h6.2v-1.9h-4
			V54.1z M42.9,54.1l-3.2,9.7H42l0.6-2h3.2l0.6,2h2.3l-3.2-9.7H42.9z M43.1,60l1.1-3.4l1.1,3.4H43.1z M56.5,58.6l3.4-4.5h-2.6
			l-3.1,4.4v-4.4H52v9.7h2.2v-3.2l0.5-0.7l2.6,3.9h2.7L56.5,58.6z"/>
	</g>
</g>
</svg>
